<svg width="800" height="169" viewBox="0 0 800 169" fill="none" xmlns="http://www.w3.org/2000/svg">
<path fill-rule="evenodd" clip-rule="evenodd" d="M749.403 93.5665L694.003 168.658H631.125L718.227 50.5973H631.342V-5.90854e-06H749.403H800H800V168.658H749.403V93.5665Z" fill="#6455A5"/>
<path d="M0 168.658V0H71.0772C129.625 0 157.815 28.6718 157.815 84.3289C157.815 139.986 129.625 168.658 71.0772 168.658H0ZM45.7785 127.698H71.0772C98.0624 127.698 110.832 113.001 110.832 84.0879C110.832 55.6571 98.0624 40.9597 71.0772 40.9597H45.7785V127.698Z" fill="black"/>
<path d="M177.175 168.658V0H316.92V40.9597H222.954V63.849H307.283V104.809H222.954V127.698H319.33V168.658H177.175Z" fill="black"/>
<path d="M338.586 168.658V0H384.364V127.698H475.922V168.658H338.586Z" fill="black"/>
<path d="M618.881 0L559.369 168.658H510.458L450.946 0H499.857L535.034 99.2671L569.97 0H618.881Z" fill="black"/>
</svg>
