<svg width="102" height="61" viewBox="0 0 102 61" fill="none" xmlns="http://www.w3.org/2000/svg">
<path d="M28.9619 59.4003V31.7665H41.5945C50.7531 31.7665 53.6349 35.122 53.6349 41.6357C53.6349 48.1494 50.7531 51.5049 41.5945 51.5049H36.4625V59.4003H28.9619ZM36.4625 44.7939H41.3182C45.4632 44.7939 45.937 43.728 45.937 41.6357C45.937 39.5434 45.4632 38.4776 41.3182 38.4776H36.4625V44.7939Z" fill="#FEFEFE"/>
<path d="M12.7115 53.084C16.0276 53.084 17.9225 51.6234 17.9225 48.4652V31.7665H25.4231V47.1625C25.4231 57.0317 21.278 59.9924 12.7115 59.9924C4.14507 59.9924 0 57.0317 0 47.1625V31.7665H7.5006V48.4652C7.5006 51.6234 9.39549 53.084 12.7115 53.084Z" fill="#FEFEFE"/>
<path d="M101.664 0L91.913 27.6338H83.8992L74.1484 0H82.1622L87.9258 16.2645L93.65 0H101.664Z" fill="#FEFEFE"/>
<path d="M55.8701 27.6338V0H63.3707V20.9227H78.3719V27.6338H55.8701Z" fill="#FEFEFE"/>
<path d="M29.4238 27.6338V0H52.3204V6.71106H36.9244V10.4614H50.7413V17.1724H36.9244V20.9227H52.7152V27.6338H29.4238Z" fill="#FEFEFE"/>
<path d="M0.394531 27.6338V0H12.0402C21.6331 0 26.2519 4.69774 26.2519 13.8169C26.2519 22.936 21.6331 27.6338 12.0402 27.6338H0.394531ZM7.89513 20.9227H12.0402C16.4616 20.9227 18.5539 18.5146 18.5539 13.7774C18.5539 9.11915 16.4616 6.71106 12.0402 6.71106H7.89513V20.9227Z" fill="#FEFEFE"/>
<path fill-rule="evenodd" clip-rule="evenodd" d="M75.6951 47.3842L66.3869 60.0171H55.8223L70.4569 40.1553H55.8587V31.6431H75.6951H84.1962V60.0171H75.6951V47.3842Z" fill="#733FE0"/>
</svg>
